:SAMPLES-PER-SECOND 30
:FULLY-SPECIFIED
:DEGREES
289
root  -39.9325 38.6848 -20.3917 2.12845 -32.6262 -10.0664
RightUpLeg  -17.9925 -16.5941 -0.0624682
RightLeg  24.8947 0.906962 0.215911
RightFoot  0.068809 -0.509422 5.1003
RightToes  -5.8209e-011 0 -3.6325e-017
Spine  6.27686 -1.31564 14.2445
Spine1  5.04233 0.074492 -0.929841
HEad  45.4718 -19.1296 177.006
LeftShoulder1  8.06883 -11.1336 -48.1071
LeftArm  -10.2524 6.12075 -31.5338
LeftForeArm  30.7388 -37.0847 -6.60058
LeftHand  -0.244104 0.0205437 5.32207
RightShoulder  6.09589 9.34479 41.2311
RightArm  -2.00351 -16.3993 27.5759
RightForeArm  16.3896 8.16524 7.39546
RightHand  -0.252845 -2.13927 -8.76836
LeftUpLeg  -0.912731 -2.36876 6.62374
LeftLeg  56.5888 1.48301 2.98587
LeftFoot  4.97998 0.0845058 -0.797729
LeftToes  1.76439e-010 -1.07097e-011 2.32476e-011
290
root  -41.0044 38.9943 -19.6779 1.5213 -30.4002 -9.52984
RightUpLeg  -14.9194 -18.5328 -0.505442
RightLeg  24.3475 0.67515 0.233029
RightFoot  -1.79097 -0.428553 4.97975
RightToes  -5.8209e-011 0 -3.6325e-017
Spine  7.27094 -0.971209 13.9338
Spine1  4.93557 0.577826 -0.631046
HEad  46.7266 -17.8929 178.225
LeftShoulder1  8.16883 -11.3008 -48.1556
LeftArm  -8.87507 7.88456 -31.7179
LeftForeArm  23.7838 -28.4896 -4.84979
LeftHand  -0.244104 0.0205437 5.32207
RightShoulder  6.14106 9.45689 41.1734
RightArm  -0.0497609 -13.4709 26.8706
RightForeArm  14.1249 9.47695 7.73419
RightHand  -0.300328 -1.89133 -9.73004
LeftUpLeg  -7.14523 -0.867216 6.83536
LeftLeg  63.3467 3.08894 7.2557
LeftFoot  6.20631 -0.298595 1.76309
LeftToes  1.76439e-010 -1.07097e-011 2.32476e-011
291
root  -42.0355 39.4355 -18.8625 0.891815 -28.8862 -8.43605
RightUpLeg  -11.1877 -18.9757 -1.99595
RightLeg  22.2504 -0.185126 0.851812
RightFoot  -3.14859 -0.379642 5.0016
RightToes  -5.8209e-011 0 -3.6325e-017
Spine  7.86693 -0.412575 14.1214
Spine1  4.66516 1.56425 -2.38128
HEad  47.9462 -16.3923 179.422
LeftShoulder1  8.16434 -11.3376 -48.0081
LeftArm  -7.06284 9.41715 -30.8206
LeftForeArm  19.3224 -19.3763 -4.08722
LeftHand  -0.244104 0.0205437 5.32207
RightShoulder  6.10887 9.48297 40.8511
RightArm  1.63036 -10.9663 26.7985
RightForeArm  11.4543 11.0031 7.76008
RightHand  -0.390717 -1.35304 -11.1476
LeftUpLeg  -12.2859 1.67522 5.79555
LeftLeg  65.8048 3.56286 9.28919
LeftFoot  2.87166 -0.372794 2.80361
LeftToes  1.76439e-010 -1.07097e-011 2.32476e-011
292
root  -43.0178 39.7985 -17.9798 0.545471 -27.5252 -7.56048
RightUpLeg  -7.30249 -17.4055 -3.54569
RightLeg  19.8123 -3.12785 1.50408
RightFoot  -4.47814 -0.351222 5.34448
RightToes  -5.8209e-011 0 -3.6325e-017
Spine  8.19776 0.0422566 14.7206
Spine1  4.2583 2.48511 -4.62833
HEad  48.7161 -15.0611 179.898
LeftShoulder1  8.03177 -11.2105 -47.6303
LeftArm  -10.3098 11.726 -29.2093
LeftForeArm  23.1885 -11.2491 -5.24159
LeftHand  -0.244104 0.0205437 5.32207
RightShoulder  6.0377 9.58047 40.0073
RightArm  3.89882 -9.20168 27.1995
RightForeArm  8.12481 13.2284 7.41992
RightHand  -0.419478 -1.2432 -11.6606
LeftUpLeg  -16.6008 4.24258 4.40648
LeftLeg  64.5717 2.8187 7.17055
LeftFoot  -0.057018 -0.174339 1.76973
LeftToes  1.76439e-010 -1.07097e-011 2.32476e-011
293
root  -43.9563 40.0669 -17.0636 0.22348 -26.0578 -6.77696
RightUpLeg  -3.41683 -14.3109 -4.72466
RightLeg  17.102 -7.64289 2.0558
RightFoot  -5.40887 -0.341469 5.87135
RightToes  -5.8209e-011 0 -3.6325e-017
Spine  8.47308 0.403994 14.773
Spine1  3.88936 3.08643 -6.11076
HEad  49.3177 -14.1731 179.633
LeftShoulder1  7.89181 -11.0727 -47.2359
LeftArm  -10.7116 15.161 -27.4342
LeftForeArm  25.7388 -6.1999 -5.11754
LeftHand  -0.244104 0.0205437 5.32207
RightShoulder  5.96881 9.73327 39.0045
RightArm  7.70611 -7.94979 27.3773
RightForeArm  3.56746 16.5692 6.54679
RightHand  -0.360864 -1.68177 -11.1434
LeftUpLeg  -20.1594 6.55529 2.6452
LeftLeg  60.6195 1.80381 4.05948
LeftFoot  -1.35952 -0.0657963 0.861442
LeftToes  1.76439e-010 -1.07097e-011 2.32476e-011
294
root  -44.8273 40.2716 -16.1292 0.061615 -24.7703 -5.8777
RightUpLeg  -0.0247392 -11.5645 -5.45834
RightLeg  14.2668 -11.2947 2.5856
RightFoot  -6.17165 -0.339378 6.58558
RightToes  -5.8209e-011 0 -3.6325e-017
Spine  8.54437 0.876649 14.3265
Spine1  3.7181 3.64245 -7.21928
HEad  50.1445 -13.6017 179.014
LeftShoulder1  7.80658 -11.007 -46.9307
LeftArm  -9.08701 19.3412 -25.4144
LeftForeArm  26.4982 -4.1681 -5.17758
LeftHand  -0.244104 0.0205437 5.32207
RightShoulder  5.90731 9.78916 38.3799
RightArm  11.4175 -6.85263 26.8043
RightForeArm  -1.0818 20.6509 5.42354
RightHand  -0.32284 -2.03685 -10.9623
LeftUpLeg  -22.981 9.21315 0.298429
LeftLeg  54.3026 1.73699 3.04469
LeftFoot  -3.01288 -0.0647223 1.1519
LeftToes  1.76439e-010 -1.07097e-011 2.32476e-011
295
root  -45.6138 40.367 -15.1684 0.455292 -23.7294 -5.27432
RightUpLeg  2.61318 -10.4676 -5.66637
RightLeg  11.8421 -13.1293 3.00532
RightFoot  -7.15532 -0.316296 7.30609
RightToes  -5.8209e-011 0 -3.6325e-017
Spine  8.11232 1.45578 14.215
Spine1  3.84788 4.30106 -8.46485
HEad  51.1489 -13.1119 178.346
LeftShoulder1  7.67312 -10.9165 -46.4037
LeftArm  -7.75745 23.8194 -23.5797
LeftForeArm  26.5466 -4.18678 -5.37457
LeftHand  -0.244104 0.0205437 5.32207
RightShoulder  5.84658 9.7267 38.1409
RightArm  11.7238 -5.7815 25.6436
RightForeArm  -2.77188 24.4581 5.28143
RightHand  -0.34677 -2.0246 -11.749
LeftUpLeg  -25.0585 12.6111 -2.2679
LeftLeg  45.4783 2.63884 3.26406
LeftFoot  -5.11701 -0.0495103 1.46401
LeftToes  1.76439e-010 -1.07097e-011 2.32476e-011
296
root  -46.3482 40.3543 -14.1651 1.11932 -22.6083 -5.21892
RightUpLeg  5.20493 -9.98862 -5.2326
RightLeg  9.52122 -14.7393 3.21976
RightFoot  -8.01171 -0.280138 7.73527
RightToes  -5.8209e-011 0 -3.6325e-017
Spine  7.38784 1.96465 14.3626
Spine1  4.21329 4.85861 -9.46591
HEad  51.9666 -12.7359 177.75
LeftShoulder1  7.40091 -10.6947 -45.4242
LeftArm  -7.52461 28.4562 -22.4362
LeftForeArm  25.7657 -5.33402 -5.23774
LeftHand  -0.244104 0.0205437 5.32207
RightShoulder  5.78397 9.65378 37.9186
RightArm  9.59651 -4.95014 24.5415
RightForeArm  -1.97407 27.472 6.02794
RightHand  -0.363842 -2.03091 -12.3735
LeftUpLeg  -26.0654 17.1158 -5.01733
LeftLeg  34.1778 2.97652 2.71465
LeftFoot  -5.8663 -0.0300021 1.36546
LeftToes  1.76439e-010 -1.07097e-011 2.32476e-011
297
root  -47.0576 40.2677 -13.1193 1.36591 -21.1754 -5.36191
RightUpLeg  8.39787 -9.27543 -4.50663
RightLeg  7.07208 -16.7122 3.40846
RightFoot  -8.73806 -0.248128 8.31066
RightToes  -5.8209e-011 0 -3.6325e-017
Spine  7.03139 2.24631 14.0995
Spine1  4.5748 5.15894 -9.8064
HEad  52.3838 -12.631 177.331
LeftShoulder1  7.05261 -10.3547 -44.3021
LeftArm  -7.96195 33.0012 -21.7976
LeftForeArm  23.7793 -6.76491 -4.90449
LeftHand  -0.244104 0.0205437 5.32207
RightShoulder  5.72793 9.62071 37.6138
RightArm  7.50689 -4.56752 23.8566
RightForeArm  -0.90431 29.6294 6.49546
RightHand  -0.332052 -2.24214 -11.9905
LeftUpLeg  -25.5603 22.1152 -7.81998
LeftLeg  21.4684 2.98004 1.1285
LeftFoot  -5.07878 -0.0358705 1.22362
LeftToes  1.76439e-010 -1.07097e-011 2.32476e-011
298
root  -47.7212 40.0805 -12.0052 1.1572 -19.4756 -5.58717
RightUpLeg  11.7238 -8.85237 -3.96036
RightLeg  5.64105 -18.1852 3.70875
RightFoot  -9.93805 -0.184519 9.59207
RightToes  -5.8209e-011 0 -3.6325e-017
Spine  7.1217 2.31158 13.7034
Spine1  4.79237 5.27567 -9.7757
HEad  52.4437 -12.7103 177.28
LeftShoulder1  6.71171 -9.94752 -43.3884
LeftArm  -8.41301 36.813 -21.3363
LeftForeArm  21.117 -7.72485 -4.58717
LeftHand  -0.244104 0.0205437 5.32207
RightShoulder  5.7023 9.61294 37.4501
RightArm  5.40285 -4.60519 23.496
RightForeArm  -0.0663586 30.7602 6.7347
RightHand  -0.315441 -2.28866 -11.5461
LeftUpLeg  -22.5995 18.5633 -6.37926
LeftLeg  8.73438 13.1786 -2.90163
LeftFoot  -4.25824 -0.0160134 0.66926
LeftToes  1.76439e-010 -1.07097e-011 2.32476e-011
299
root  -48.3165 39.7716 -10.7612 0.971558 -17.6502 -6.25381
RightUpLeg  14.5034 -8.95854 -3.43704
RightLeg  6.13096 -19.1837 3.92469
RightFoot  -11.3444 -0.077545 10.9398
RightToes  -5.8209e-011 0 -3.6325e-017
Spine  6.8832 2.37347 13.9527
Spine1  5.06305 5.35322 -9.78596
HEad  52.174 -12.7216 177.742
LeftShoulder1  6.34672 -9.45803 -42.5217
LeftArm  -9.00203 39.4219 -21.2175
LeftForeArm  19.0548 -7.88209 -4.21071
LeftHand  -0.244104 0.0205437 5.32207
RightShoulder  5.72856 9.63191 37.5824
RightArm  3.54726 -5.02875 23.3205
RightForeArm  -0.386505 30.7497 6.75019
RightHand  -0.360728 -1.98429 -12.0842
LeftUpLeg  -18.346 3.28412 -0.00045925
LeftLeg  -3.44236 36.327 -10.6417
LeftFoot  -4.40468 0.0132605 0.22537
LeftToes  1.76439e-010 -1.07097e-011 2.32476e-011
300
root  -48.8813 39.3985 -9.35004 0.958008 -15.7496 -7.08661
RightUpLeg  16.8494 -9.28719 -2.99456
RightLeg  7.77681 -19.8758 3.97915
RightFoot  -12.2656 0.0153821 12.2235
RightToes  -5.8209e-011 0 -3.6325e-017
Spine  5.77325 2.58167 14.1618
Spine1  5.68224 5.46183 -9.58148
HEad  51.5427 -12.6631 178.65
LeftShoulder1  5.92205 -8.86223 -41.5152
LeftArm  -9.80496 41.0195 -21.4692
LeftForeArm  17.9152 -7.47909 -3.76019
LeftHand  -0.244104 0.0205437 5.32207
RightShoulder  5.80942 9.66911 38.0551
RightArm  2.25785 -5.93538 23.2097
RightForeArm  -1.39085 29.7471 6.5522
RightHand  -0.418399 -1.65745 -12.8834
LeftUpLeg  -17.5597 3.58291 -1.01377
LeftLeg  -7.32561 41.4485 -12.8905
LeftFoot  -5.16348 -0.0679578 1.77255
LeftToes  1.76439e-010 -1.07097e-011 2.32476e-011
